<svg id="wharf" enable-background="new 0 0 300 300" height="512" viewBox="0 0 300 300" width="512" xmlns="http://www.w3.org/2000/svg"><circle cx="145.22" cy="152" fill="#e5efef" r="86"/><path d="m267.22 266h-220c0-15.464 12.536-28 28-28h164c15.464 0 28 12.536 28 28z" fill="#9dc1e4"/><path d="m267.22 270h-220c-2.209 0-4-1.791-4-4 0-17.645 14.355-32 32-32h164c17.645 0 32 14.355 32 32 0 2.209-1.791 4-4 4zm-215.667-8h211.334c-1.91-11.336-11.796-20-23.667-20h-164c-11.871 0-21.757 8.664-23.667 20z" fill="#4c241d"/><path d="m242.095 238h-86.003c-13.576-34.638-16.4-78.559-12.83-128h111.663c5.134 47.6 3.717 91.766-12.83 128z" fill="#e7d1c4"/><path d="m242.095 242h-86.003c-1.646 0-3.124-1.008-3.725-2.54-12.764-32.565-17.047-75.007-13.095-129.748.15-2.092 1.892-3.712 3.989-3.712h111.663c2.043 0 3.758 1.54 3.977 3.571 6.027 55.883 1.843 97.22-13.168 130.091-.65 1.424-2.071 2.338-3.638 2.338zm-83.249-8h80.652c13.229-30.44 17.002-68.745 11.823-120h-104.325c-3.32 50.311.564 89.639 11.85 120z" fill="#4c241d"/><path d="m199.428 240.246c-2.209 0-4-1.791-4-4v-122.209c0-2.209 1.791-4 4-4s4 1.791 4 4v122.209c0 2.209-1.791 4-4 4z" fill="#4c241d"/><circle cx="227.01" cy="139.011" fill="#ffce56" r="6.442"/><path d="m227.009 149.452c-5.758 0-10.441-4.684-10.441-10.441s4.684-10.442 10.441-10.442 10.442 4.685 10.442 10.442-4.684 10.441-10.442 10.441zm0-12.884c-1.347 0-2.441 1.096-2.441 2.442s1.095 2.441 2.441 2.441 2.442-1.095 2.442-2.441-1.095-2.442-2.442-2.442z" fill="#4c241d"/><circle cx="171.473" cy="139.011" fill="#ffce56" r="6.442"/><path d="m171.473 149.452c-5.758 0-10.442-4.684-10.442-10.441s4.685-10.442 10.442-10.442 10.441 4.685 10.441 10.442-4.683 10.441-10.441 10.441zm0-12.884c-1.347 0-2.442 1.096-2.442 2.442s1.096 2.441 2.442 2.441 2.441-1.095 2.441-2.441-1.094-2.442-2.441-2.442z" fill="#4c241d"/><path d="m159.22 90h84v20h-84z" fill="#edebdc"/><path d="m243.22 114h-84c-2.209 0-4-1.791-4-4v-20c0-2.209 1.791-4 4-4h84c2.209 0 4 1.791 4 4v20c0 2.209-1.791 4-4 4zm-80-8h76v-12h-76z" fill="#4c241d"/><path d="m211.22 46h24v43.621h-24z" fill="#f53e28"/><path d="m235.22 93.621h-24c-2.209 0-4-1.791-4-4v-43.621c0-2.209 1.791-4 4-4h24c2.209 0 4 1.791 4 4v43.621c0 2.209-1.791 4-4 4zm-20-8h16v-35.621h-16z" fill="#4c241d"/><path d="m211.22 46h24v15.705h-24z" fill="#6b4f5b"/><path d="m235.22 65.705h-24c-2.209 0-4-1.791-4-4v-15.705c0-2.209 1.791-4 4-4h24c2.209 0 4 1.791 4 4v15.705c0 2.209-1.791 4-4 4zm-20-8h16v-7.705h-16z" fill="#4c241d"/><path d="m79.173 241.135c-2.209 0-4-1.791-4-4v-41.998c0-2.209 1.791-4 4-4s4 1.791 4 4v41.998c0 2.209-1.791 4-4 4z" fill="#4c241d"/><path d="m107.22 242c-2.209 0-4-1.791-4-4v-44c0-2.209 1.791-4 4-4s4 1.791 4 4v44c0 2.209-1.791 4-4 4z" fill="#4c241d"/><path d="m123.22 198h-56c-2.209 0-4-1.791-4-4s1.791-4 4-4h56c2.209 0 4 1.791 4 4s-1.791 4-4 4z" fill="#4c241d"/><path d="m117.38 160.313c-.221 0-.444-.019-.67-.057-1.37-.23-2.747-.493-4.094-.778-2.161-.459-3.541-2.582-3.083-4.743.459-2.161 2.583-3.542 4.743-3.083 1.237.263 2.503.504 3.764.716 2.178.367 3.646 2.431 3.279 4.609-.328 1.954-2.022 3.336-3.939 3.336zm-19.221-5.399c-.497 0-1.001-.093-1.49-.289-1.29-.519-2.579-1.068-3.83-1.636-2.013-.911-2.905-3.281-1.994-5.293.911-2.013 3.282-2.908 5.293-1.994 1.147.519 2.329 1.023 3.514 1.499 2.05.824 3.044 3.153 2.221 5.203-.628 1.561-2.129 2.51-3.714 2.51zm-17.606-9.386c-.774 0-1.557-.224-2.246-.692-1.134-.771-2.276-1.585-3.395-2.418-1.771-1.319-2.138-3.825-.818-5.598 1.319-1.771 3.826-2.138 5.598-.818 1.026.765 2.074 1.512 3.115 2.219 1.826 1.243 2.3 3.73 1.058 5.558-.775 1.137-2.032 1.749-3.312 1.749zm-15.202-12.922c-1.059 0-2.114-.417-2.9-1.244-.956-1.007-1.9-2.043-2.807-3.079-1.453-1.664-1.282-4.191.381-5.645 1.666-1.453 4.192-1.281 5.645.381.832.953 1.7 1.905 2.58 2.831 1.521 1.602 1.458 4.133-.144 5.655-.774.736-1.766 1.101-2.755 1.101zm-12.147-15.835c-1.348 0-2.663-.682-3.417-1.916-.726-1.187-1.432-2.398-2.099-3.601-1.071-1.932-.374-4.366 1.558-5.438 1.933-1.071 4.366-.374 5.438 1.558.612 1.104 1.262 2.219 1.929 3.312 1.152 1.885.558 4.347-1.328 5.498-.651.398-1.37.587-2.081.587z" fill="#4c241d"/><path d="m97.22 54c-.854 0-1.668.14-2.46.341-1.66-7.066-7.968-12.341-15.54-12.341s-13.88 5.275-15.54 12.341c-.791-.201-1.606-.341-2.46-.341-5.523 0-10 4.477-10 10s4.477 10 10 10h36c5.523 0 10-4.477 10-10s-4.477-10-10-10z" fill="#fff"/><g fill="#4c241d"><path d="m97.22 78h-36c-7.72 0-14-6.28-14-14 0-7.618 6.117-13.835 13.697-13.997 3.122-7.214 10.215-12.003 18.303-12.003s15.182 4.789 18.303 12.003c7.58.162 13.697 6.379 13.697 13.997 0 7.72-6.28 14-14 14zm-36-20c-3.309 0-6 2.691-6 6s2.691 6 6 6h36c3.309 0 6-2.691 6-6s-2.691-6-6-6c-.422 0-.891.069-1.476.218-1.039.263-2.143.101-3.061-.458-.917-.557-1.572-1.459-1.817-2.504-1.281-5.45-6.07-9.256-11.646-9.256s-10.365 3.806-11.646 9.256c-.245 1.045-.9 1.947-1.817 2.504-.918.559-2.021.721-3.061.458-.585-.149-1.054-.218-1.476-.218z"/><path d="m147.22 50c-2.209 0-4-1.791-4-4v-12c0-2.209 1.791-4 4-4s4 1.791 4 4v12c0 2.209-1.791 4-4 4z"/><path d="m147.22 78c-2.209 0-4-1.791-4-4v-12c0-2.209 1.791-4 4-4s4 1.791 4 4v12c0 2.209-1.791 4-4 4z"/><path d="m139.22 58h-12c-2.209 0-4-1.791-4-4s1.791-4 4-4h12c2.209 0 4 1.791 4 4s-1.791 4-4 4z"/><path d="m167.22 58h-12c-2.209 0-4-1.791-4-4s1.791-4 4-4h12c2.209 0 4 1.791 4 4s-1.791 4-4 4z"/><path d="m43.22 184.44c-7.963 0-14.44-6.478-14.44-14.44s6.478-14.44 14.44-14.44 14.44 6.478 14.44 14.44-6.477 14.44-14.44 14.44zm0-20.88c-3.551 0-6.44 2.89-6.44 6.44s2.89 6.44 6.44 6.44 6.44-2.89 6.44-6.44-2.889-6.44-6.44-6.44z"/></g></svg>